<svg width="20" height="22" viewBox="0 0 20 22" fill="none" xmlns="http://www.w3.org/2000/svg">
<path d="M19.1711 5.828C19.1682 5.82247 19.1658 5.81685 19.1627 5.81141C19.1602 5.807 19.1571 5.80297 19.1545 5.79866C19.0211 5.57288 18.8308 5.38604 18.6026 5.25678L10.7276 0.805721C10.5021 0.67915 10.248 0.612671 9.98943 0.612671C9.7309 0.612671 9.47671 0.67915 9.25129 0.805721L1.37629 5.25678C1.14416 5.38814 0.951278 5.57905 0.817536 5.80982C0.81613 5.81225 0.814442 5.8145 0.81313 5.81694C0.810692 5.82125 0.808911 5.82585 0.806568 5.83016C0.680856 6.05384 0.614681 6.30604 0.61438 6.56263V15.4374C0.614633 15.703 0.685277 15.9637 0.819116 16.1932C0.952954 16.4226 1.14521 16.6124 1.37629 16.7433L9.25129 21.1943C9.46103 21.3122 9.6961 21.3779 9.9366 21.3857C9.9516 21.3868 9.96641 21.3883 9.9816 21.3884H9.98966C10.01 21.3884 10.03 21.387 10.0499 21.3854C10.2878 21.3765 10.5201 21.311 10.7276 21.1944L18.6026 16.7431C18.8336 16.6122 19.0259 16.4224 19.1597 16.1931C19.2936 15.9637 19.3642 15.7029 19.3645 15.4374V6.56263C19.3642 6.30521 19.2976 6.0522 19.1711 5.828ZM9.98938 2.11147L17.0969 6.12885L14.5916 7.56135L7.4286 3.55897L9.98938 2.11147ZM10.0846 10.1385L2.89522 6.12125L5.89991 4.42297L13.0718 8.43041L10.0846 10.1385ZM2.11438 7.40319L9.33435 11.4375L9.25138 19.4713L2.11438 15.4374V7.40319ZM10.7517 19.4576L10.8345 11.4376L13.8458 9.71572V12.9229C13.8458 13.1218 13.9248 13.3126 14.0655 13.4532C14.2061 13.5939 14.3969 13.6729 14.5958 13.6729C14.7947 13.6729 14.9855 13.5939 15.1261 13.4532C15.2668 13.3126 15.3458 13.1218 15.3458 12.9229V8.85791L17.8644 7.41782V15.4374L10.7517 19.4576Z" fill="#FBBC12"/>
</svg>
